<svg aria-hidden="true" style="position: absolute; width: 0; height: 0; overflow: hidden;" version="1.1" xmlns="http://www.w3.org/2000/svg" xmlns:xlink="http://www.w3.org/1999/xlink">
<defs>
<symbol id="icon-giarddesign" viewBox="0 0 184 32">
<path fill="#1e1e1e" style="fill: var(--color1, #1e1e1e)" d="M0 0h184v32h-184v-32z"></path>
<path fill="#fff" style="fill: var(--color2, #fff)" d="M-142.4-41.6h2304v8430.4h-2304v-8430.4z"></path>
<path fill="#fff" style="fill: var(--color2, #fff)" d="M0-41.6h2019.2v115.2h-2019.2v-115.2z"></path>
<path fill="#111" style="fill: var(--color3, #111)" d="M7.392 31.2c-2.005 0-3.744-0.352-5.216-1.056-1.451-0.683-2.176-1.739-2.176-3.168 0-0.853 0.352-1.611 1.056-2.272 0.725-0.661 1.643-1.205 2.752-1.632 1.109-0.448 2.368-0.843 3.776-1.184 0.277-0.085 0.501-0.139 0.672-0.16l0.608 0.64c-0.939 0.299-1.707 0.608-2.304 0.928s-1.056 0.683-1.376 1.088c-0.32 0.384-0.48 0.811-0.48 1.28 0 0.661 0.299 1.12 0.896 1.376 0.619 0.277 1.429 0.416 2.432 0.416 0.96 0 1.877-0.107 2.752-0.32 0.896-0.213 1.632-0.523 2.208-0.928s0.864-0.885 0.864-1.44c0-0.363-0.16-0.651-0.48-0.864s-0.768-0.32-1.344-0.32c-0.512 0-1.035 0.053-1.568 0.16-0.533 0.085-1.195 0.224-1.984 0.416-0.683 0.192-1.269 0.331-1.76 0.416-0.491 0.107-0.949 0.16-1.376 0.16-0.875 0-1.685-0.149-2.432-0.448-0.725-0.32-1.312-0.747-1.76-1.28-0.427-0.555-0.64-1.184-0.64-1.888 0-0.981 0.491-1.835 1.472-2.56 1.003-0.747 2.379-1.397 4.128-1.952l1.056 0.928c-0.277 0.085-0.533 0.171-0.768 0.256-0.555 0.192-0.971 0.405-1.248 0.64s-0.416 0.555-0.416 0.96c0 0.341 0.139 0.597 0.416 0.768 0.299 0.171 0.672 0.256 1.12 0.256 0.491 0 1.003-0.032 1.536-0.096 0.533-0.085 1.088-0.192 1.664-0.32 0.917-0.171 1.717-0.299 2.4-0.384s1.429-0.128 2.24-0.128c1.429 0 2.613 0.341 3.552 1.024 0.96 0.683 1.44 1.728 1.44 3.136 0 1.621-0.608 2.997-1.824 4.128-1.195 1.152-2.699 2.005-4.512 2.56-1.813 0.576-3.605 0.864-5.376 0.864zM8.736 18.88c-1.515 0-2.859-0.256-4.032-0.768-1.152-0.533-2.059-1.269-2.72-2.208-0.64-0.939-0.96-1.995-0.96-3.168 0-1.152 0.32-2.187 0.96-3.104 0.661-0.939 1.579-1.664 2.752-2.176 1.173-0.533 2.507-0.8 4-0.8 0.917 0 1.653 0.075 2.208 0.224 0.576 0.149 1.195 0.352 1.856 0.608 0.256 0.107 0.491 0.203 0.704 0.288 0.235 0.064 0.459 0.096 0.672 0.096 0.555 0 0.949-0.192 1.184-0.576s0.352-0.885 0.352-1.504l4.032 1.28c-0.021 0.811-0.352 1.44-0.992 1.888-0.619 0.427-1.44 0.64-2.464 0.64-0.256-0.021-0.544-0.043-0.864-0.064 0.683 0.939 1.024 2.005 1.024 3.2 0 1.173-0.331 2.229-0.992 3.168-0.64 0.939-1.547 1.675-2.72 2.208-1.173 0.512-2.507 0.768-4 0.768zM8.736 15.744c0.533 0 1.003-0.128 1.408-0.384s0.715-0.608 0.928-1.056c0.213-0.469 0.32-0.992 0.32-1.568 0-0.853-0.245-1.557-0.736-2.112-0.469-0.555-1.109-0.832-1.92-0.832-0.533 0-1.003 0.128-1.408 0.384s-0.725 0.608-0.96 1.056c-0.213 0.448-0.32 0.949-0.32 1.504 0 0.875 0.245 1.6 0.736 2.176 0.512 0.555 1.163 0.832 1.952 0.832z"></path>
<path fill="#111" style="fill: var(--color3, #111)" d="M20.9 7.104h5.056v13.248c0 1.515 0.075 2.901 0.224 4.16h-5.28v-17.408zM20.836 0.8h5.152v4.448h-5.152v-4.448z"></path>
<path fill="#111" style="fill: var(--color3, #111)" d="M44.292 24.96c-1.365 0-2.432-0.395-3.2-1.184s-1.152-1.941-1.152-3.456v-6.912c0-1.024-0.245-1.792-0.736-2.304-0.469-0.533-1.195-0.8-2.176-0.8-1.024 0-2.016 0.299-2.976 0.896s-1.792 1.472-2.496 2.624l-3.456-2.688c1.216-1.472 2.624-2.581 4.224-3.328 1.621-0.768 3.371-1.152 5.248-1.152 1.749 0 3.168 0.277 4.256 0.832 1.088 0.533 1.888 1.301 2.4 2.304 0.512 0.981 0.768 2.144 0.768 3.488v7.2c0 0.021 0 0.043 0 0.064 0 0 0 0.011 0 0.032 0.021 0.363 0.107 0.629 0.256 0.8s0.363 0.256 0.64 0.256c0.235 0 0.459-0.011 0.672-0.032 0.235-0.043 0.48-0.107 0.736-0.192l-0.64 3.104c-0.363 0.149-0.747 0.256-1.152 0.32-0.405 0.085-0.811 0.128-1.216 0.128zM33.86 24.96c-1.749 0-3.136-0.448-4.16-1.344-1.003-0.917-1.504-2.091-1.504-3.52 0-1.259 0.469-2.379 1.408-3.36 0.939-1.003 2.336-1.813 4.192-2.432s4.139-1.035 6.848-1.248v3.2c-1.643 0.149-2.997 0.363-4.064 0.64-1.045 0.277-1.835 0.629-2.368 1.056-0.512 0.405-0.768 0.896-0.768 1.472 0 0.469 0.171 0.853 0.512 1.152 0.363 0.277 0.853 0.416 1.472 0.416 0.832 0 1.589-0.181 2.272-0.544s1.227-0.875 1.632-1.536c0.405-0.661 0.608-1.44 0.608-2.336l0.992 0.288c0 1.365-0.245 2.667-0.736 3.904-0.491 1.216-1.269 2.219-2.336 3.008-1.045 0.789-2.379 1.184-4 1.184z"></path>
<path fill="#111" style="fill: var(--color3, #111)" d="M48.682 7.104h5.088v4.16c0.683-1.472 1.493-2.603 2.432-3.392 0.939-0.811 1.909-1.216 2.912-1.216 0.597 0 1.131 0.096 1.6 0.288 0.469 0.171 0.939 0.416 1.408 0.736l-2.048 4.448c-0.448-0.299-0.853-0.512-1.216-0.64-0.363-0.149-0.779-0.224-1.248-0.224-0.683 0-1.312 0.203-1.888 0.608-0.576 0.384-1.045 0.971-1.408 1.76s-0.544 1.739-0.544 2.848v3.872c0 1.515 0.075 2.901 0.224 4.16h-5.312v-17.408z"></path>
<path fill="#111" style="fill: var(--color3, #111)" d="M69.762 24.96c-1.664 0-3.115-0.373-4.352-1.12-1.237-0.768-2.197-1.835-2.88-3.2-0.661-1.387-0.992-2.997-0.992-4.832s0.331-3.435 0.992-4.8c0.683-1.387 1.643-2.453 2.88-3.2 1.237-0.768 2.688-1.152 4.352-1.152 1.173 0 2.272 0.299 3.296 0.896s1.856 1.419 2.496 2.464v-8.384h4.446v18.72c0 1.515 0.085 2.901 0.256 4.16h-4.702v-3.040c-0.619 1.088-1.44 1.941-2.464 2.56-1.003 0.619-2.112 0.928-3.328 0.928zM66.882 15.808c0 1.045 0.181 1.973 0.544 2.784 0.363 0.789 0.864 1.408 1.504 1.856 0.64 0.427 1.397 0.64 2.272 0.64 0.789 0 1.515-0.224 2.176-0.672s1.184-1.035 1.568-1.76c0.405-0.747 0.608-1.536 0.608-2.368v-0.96c0-0.875-0.203-1.675-0.608-2.4s-0.949-1.301-1.632-1.728c-0.661-0.448-1.365-0.672-2.112-0.672-0.875 0-1.632 0.224-2.272 0.672-0.64 0.427-1.141 1.045-1.504 1.856-0.363 0.789-0.544 1.707-0.544 2.752z"></path>
<path fill="#111" style="fill: var(--color3, #111)" d="M91.269 24.96c-1.621 0-3.061-0.384-4.32-1.152s-2.24-1.845-2.944-3.232c-0.683-1.387-1.024-2.976-1.024-4.768s0.341-3.381 1.024-4.768c0.704-1.387 1.685-2.464 2.944-3.232s2.699-1.152 4.32-1.152c1.387 0 2.645 0.373 3.776 1.12 1.152 0.725 2.037 1.717 2.656 2.976v-9.12h2.912v18.72c0 1.536 0.053 2.923 0.16 4.16h-3.072v-3.68c-0.597 1.259-1.472 2.261-2.624 3.008-1.131 0.747-2.4 1.12-3.808 1.12zM86.117 15.808c0 1.323 0.245 2.507 0.736 3.552 0.491 1.024 1.173 1.824 2.048 2.4s1.877 0.864 3.008 0.864c1.067 0 2.037-0.277 2.912-0.832 0.896-0.555 1.6-1.28 2.112-2.176 0.512-0.917 0.768-1.92 0.768-3.008v-1.6c0-1.088-0.267-2.091-0.8-3.008-0.512-0.917-1.216-1.643-2.112-2.176-0.875-0.555-1.835-0.832-2.88-0.832-1.131 0-2.133 0.288-3.008 0.864s-1.557 1.387-2.048 2.432c-0.491 1.024-0.736 2.197-0.736 3.52z"></path>
<path fill="#111" style="fill: var(--color3, #111)" d="M112.473 24.96c-1.579 0-3.040-0.331-4.384-0.992s-2.421-1.643-3.232-2.944c-0.789-1.301-1.184-2.88-1.184-4.736s0.373-3.509 1.12-4.96c0.768-1.472 1.813-2.613 3.136-3.424 1.344-0.832 2.869-1.248 4.576-1.248 1.749 0 3.232 0.395 4.448 1.184s2.133 1.909 2.752 3.36c0.64 1.429 0.96 3.104 0.96 5.024h-15.552v-2.272h13.6l-1.056 0.928c0-1.131-0.203-2.144-0.608-3.040-0.405-0.917-1.003-1.632-1.792-2.144-0.768-0.512-1.685-0.768-2.752-0.768-1.152 0-2.165 0.299-3.040 0.896-0.853 0.576-1.525 1.419-2.016 2.528-0.491 1.088-0.736 2.357-0.736 3.808 0 1.472 0.267 2.699 0.8 3.68s1.237 1.707 2.112 2.176c0.875 0.448 1.835 0.672 2.88 0.672 1.515 0 2.773-0.395 3.776-1.184 1.024-0.789 1.76-1.781 2.208-2.976l2.432 1.696c-1.003 1.536-2.219 2.709-3.648 3.52s-3.029 1.216-4.8 1.216z"></path>
<path fill="#111" style="fill: var(--color3, #111)" d="M130.924 24.96c-1.813 0-3.509-0.395-5.088-1.184-1.557-0.811-2.805-1.92-3.744-3.328l2.176-1.792c0.597 1.301 1.493 2.315 2.688 3.040 1.216 0.725 2.56 1.088 4.032 1.088 0.768 0 1.451-0.107 2.048-0.32 0.597-0.235 1.067-0.555 1.408-0.96 0.341-0.427 0.512-0.928 0.512-1.504 0-0.619-0.224-1.131-0.672-1.536-0.448-0.427-1.003-0.757-1.664-0.992-0.64-0.256-1.536-0.533-2.688-0.832-1.429-0.384-2.592-0.747-3.488-1.088-0.875-0.363-1.632-0.875-2.272-1.536-0.619-0.661-0.928-1.536-0.928-2.624 0-0.917 0.267-1.739 0.8-2.464s1.291-1.28 2.272-1.664c0.981-0.405 2.091-0.608 3.328-0.608 1.557 0 2.997 0.267 4.32 0.8 1.344 0.533 2.528 1.483 3.552 2.848l-2.176 1.792c-0.512-1.067-1.291-1.877-2.336-2.432s-2.176-0.832-3.392-0.832c-1.045 0-1.899 0.213-2.56 0.64-0.64 0.405-0.96 0.949-0.96 1.632 0 0.555 0.203 1.013 0.608 1.376 0.427 0.363 0.949 0.661 1.568 0.896 0.619 0.213 1.461 0.459 2.528 0.736 1.493 0.405 2.699 0.789 3.616 1.152 0.939 0.363 1.739 0.907 2.4 1.632 0.683 0.704 1.024 1.643 1.024 2.816 0 1.067-0.309 2.005-0.928 2.816-0.619 0.789-1.451 1.397-2.496 1.824-1.024 0.405-2.187 0.608-3.488 0.608z"></path>
<path fill="#111" style="fill: var(--color3, #111)" d="M140.537 7.104h2.912v13.248c0 1.536 0.053 2.923 0.16 4.16h-3.072v-17.408zM140.345 1.376h3.296v3.104h-3.296v-3.104z"></path>
<path fill="#111" style="fill: var(--color3, #111)" d="M152.469 31.2c-1.792 0-3.328-0.363-4.608-1.088s-1.92-1.792-1.92-3.2c0-0.789 0.277-1.493 0.832-2.112s1.301-1.141 2.24-1.568c0.939-0.448 2.059-0.832 3.36-1.152 0.256-0.064 0.48-0.117 0.672-0.16l0.384 0.512c-0.981 0.32-1.803 0.661-2.464 1.024-0.661 0.341-1.184 0.747-1.568 1.216s-0.576 1.024-0.576 1.664c0 0.896 0.395 1.557 1.184 1.984 0.811 0.427 1.813 0.64 3.008 0.64 1.28 0 2.528-0.192 3.744-0.576 1.237-0.384 2.24-0.928 3.008-1.632 0.768-0.683 1.152-1.472 1.152-2.368 0-0.619-0.213-1.099-0.64-1.44-0.426-0.363-1.045-0.544-1.856-0.544-0.512 0-1.067 0.064-1.664 0.192-0.576 0.107-1.365 0.288-2.368 0.544-0.832 0.235-1.525 0.416-2.080 0.544-0.555 0.107-1.045 0.16-1.472 0.16-0.768 0-1.483-0.107-2.144-0.32-0.64-0.235-1.163-0.565-1.568-0.992-0.384-0.448-0.576-0.971-0.576-1.568 0-0.896 0.448-1.685 1.344-2.368 0.896-0.704 2.101-1.259 3.616-1.664l0.608 0.8c-0.448 0.128-0.821 0.267-1.12 0.416-0.64 0.256-1.109 0.555-1.408 0.896-0.299 0.32-0.448 0.672-0.448 1.056 0 0.427 0.192 0.725 0.576 0.896s0.885 0.256 1.504 0.256c0.533 0 1.088-0.053 1.664-0.16 0.576-0.128 1.237-0.288 1.984-0.48 0.896-0.235 1.664-0.405 2.304-0.512 0.661-0.128 1.344-0.192 2.048-0.192 1.451 0 2.614 0.341 3.488 1.024 0.875 0.683 1.312 1.675 1.312 2.976 0 1.472-0.576 2.763-1.728 3.872-1.13 1.109-2.592 1.952-4.384 2.528-1.771 0.597-3.584 0.896-5.44 0.896zM154.197 18.688c-1.365 0-2.571-0.256-3.616-0.768-1.045-0.533-1.867-1.259-2.464-2.176-0.576-0.917-0.864-1.941-0.864-3.072s0.288-2.155 0.864-3.072c0.597-0.917 1.419-1.632 2.464-2.144 1.067-0.533 2.272-0.8 3.616-0.8 0.917 0 1.675 0.096 2.272 0.288s1.227 0.448 1.888 0.768c0.363 0.192 0.672 0.341 0.928 0.448 0.256 0.085 0.523 0.128 0.8 0.128 0.64 0 1.099-0.192 1.376-0.576 0.299-0.405 0.448-0.928 0.448-1.568l2.432 0.832c-0.021 0.853-0.352 1.504-0.992 1.952s-1.386 0.672-2.24 0.672c-0.213 0-0.501-0.021-0.864-0.064 0.619 0.896 0.928 1.941 0.928 3.136 0 1.131-0.288 2.155-0.864 3.072s-1.397 1.643-2.464 2.176c-1.067 0.512-2.283 0.768-3.648 0.768zM154.197 16.736c0.832 0 1.547-0.171 2.144-0.512 0.597-0.363 1.056-0.853 1.376-1.472 0.32-0.64 0.48-1.333 0.48-2.080 0-1.152-0.363-2.112-1.088-2.88-0.704-0.789-1.675-1.184-2.912-1.184-0.811 0-1.525 0.181-2.144 0.544-0.597 0.363-1.056 0.853-1.376 1.472-0.299 0.597-0.448 1.28-0.448 2.048 0 1.173 0.352 2.144 1.056 2.912 0.725 0.768 1.696 1.152 2.912 1.152z"></path>
<path fill="#111" style="fill: var(--color3, #111)" d="M166.413 7.104h2.912v5.056c0.426-1.088 1.034-2.048 1.824-2.88 0.789-0.832 1.685-1.472 2.688-1.92 1.002-0.469 2.026-0.704 3.072-0.704 1.301 0 2.389 0.256 3.264 0.768 0.896 0.491 1.557 1.173 1.984 2.048 0.448 0.875 0.672 1.888 0.672 3.040v7.84c0 1.536 0.053 2.923 0.16 4.16h-3.072v-11.552c0-1.28-0.32-2.251-0.96-2.912-0.619-0.661-1.611-0.992-2.976-0.992-1.003 0-2.027 0.309-3.072 0.928-1.024 0.619-1.878 1.493-2.56 2.624-0.683 1.109-1.024 2.4-1.024 3.872v8.032h-2.912v-17.408z"></path>
</symbol>
<symbol id="icon-Group" viewBox="0 0 27 32">
<path fill="#003edc" style="fill: var(--color4, #003edc)" d="M24.829 10.587h-0.006c-0.273 0.023-0.547 0.040-0.815 0.052h-0.068c-1.134 0.029-2.279-0.086-3.39-0.346-1.442-0.334-2.843-0.905-4.137-1.729-0.855-0.536-1.658-1.181-2.399-1.931-0.211-0.207-0.41-0.427-0.598-0.646-1.385-1.591-2.336-3.418-2.866-5.343-1.538 0.738-2.917 1.764-4.068 2.997-1.328 1.424-2.353 3.135-2.98 5.031-0.125 0.386-0.239 0.784-0.336 1.193l-0.273 1.556-1.088 6.236-0.256 1.452 0.946-0.818 1.59-1.383-0.256-3.481c-0.057-0.352-0.086-0.709-0.086-1.078v-0.035l9.219 0.208c-1.498 0.692-4.142 3.020-5.174 4.115l-0.011 0.017c-0.234 0.248-0.456 0.501-0.672 0.767l-0.786 3.193-0.091 0.369h0.006l-0.222 0.899-0.040 0.167-2.228 9.060 8.404-4.547 0.080-0.421 0.319-1.694c0.034-0.161 0.068-0.3 0.103-0.421 0.091-0.346 0.137-0.513 0.194-0.668 0.091-0.288 0.194-0.571 0.291-0.824 1.92-5.054 4.33-6.207 4.171-6.207 0.125-0.104 0.262-0.202 0.399-0.294 1.168-0.824 2.695-1.418 4.347-1.648 0.251-0.035 0.536-0.063 0.832-0.069l0.080-0.006 1.521-1.712 2.011-2.271-0.108 0.023c-0.519 0.11-1.037 0.19-1.556 0.236z"></path>
</symbol>
<symbol id="icon-VectorRight" viewBox="0 0 32 32">
<path fill="#1b5b31" style="fill: var(--color5, #1b5b31)" d="M15.991 0l-1.791 1.791 12.955 12.936h-27.154v2.546h27.135l-12.936 12.936 1.791 1.791 16.009-16.009-16.009-15.991z"></path>
</symbol>
<symbol id="icon-VectorDown" viewBox="0 0 30 32">
<path fill="#1b5b31" style="fill: var(--color5, #1b5b31)" d="M30.118 15.991l-1.686-1.686-12.175 12.193v-25.557h-2.396v25.539l-12.175-12.175-1.686 1.686 15.068 15.068 15.050-15.068z"></path>
</symbol>
<symbol id="icon-search" viewBox="0 0 32 32">
<path d="M13.333 3c-5.707 0-10.333 4.626-10.333 10.333s4.626 10.333 10.333 10.333c2.493 0 4.78-0.883 6.566-2.354l7.394 7.394 0.112 0.097c0.391 0.291 0.947 0.258 1.302-0.097 0.391-0.391 0.391-1.024 0-1.414l-7.394-7.394c1.471-1.785 2.354-4.072 2.354-6.566 0-5.707-4.626-10.333-10.333-10.333zM13.333 5c4.602 0 8.333 3.731 8.333 8.333s-3.731 8.333-8.333 8.333c-4.602 0-8.333-3.731-8.333-8.333s3.731-8.333 8.333-8.333z"></path>
</symbol>
<symbol id="icon-OfertaMenu" viewBox="0 0 32 32">
<path d="M5.68 12.838c-0.463-0.463-0.463-1.213 0-1.676 0.421-0.421 1.079-0.459 1.543-0.115l0.133 0.115 8.643 8.643 8.643-8.643c0.421-0.421 1.079-0.459 1.543-0.115l0.133 0.115c0.421 0.421 0.459 1.079 0.115 1.543l-0.115 0.133-9.482 9.482c-0.421 0.421-1.079 0.459-1.543 0.115l-0.133-0.115-9.482-9.482z"></path>
</symbol>
</defs>
</svg>
